<mxfile host="65bd71144e">
    <diagram id="Z_BuT-N2rbeQhxymySNZ" name="Page-1">
        <mxGraphModel dx="1848" dy="615" grid="1" gridSize="10" guides="1" tooltips="1" connect="1" arrows="1" fold="1" page="1" pageScale="1" pageWidth="827" pageHeight="1169" math="0" shadow="0">
            <root>
                <mxCell id="0"/>
                <mxCell id="1" parent="0"/>
                <mxCell id="2" value="Climate Monitoring Client&amp;nbsp;" style="shape=umlFrame;whiteSpace=wrap;html=1;width=190;height=25;boundedLbl=1;verticalAlign=middle;align=left;spacingLeft=5;shadow=0;" parent="1" vertex="1">
                    <mxGeometry x="100" y="40" width="660" height="950" as="geometry"/>
                </mxCell>
                <mxCell id="3" value="Cittadino" style="shape=umlActor;verticalLabelPosition=bottom;verticalAlign=top;html=1;" parent="1" vertex="1">
                    <mxGeometry x="-20" y="180" width="30" height="60" as="geometry"/>
                </mxCell>
                <mxCell id="5" value="Operatore" style="shape=umlActor;verticalLabelPosition=bottom;verticalAlign=top;html=1;" parent="1" vertex="1">
                    <mxGeometry x="-20" y="420" width="30" height="60" as="geometry"/>
                </mxCell>
                <mxCell id="6" value="" style="edgeStyle=none;html=1;endSize=12;endArrow=block;endFill=0;" parent="1" edge="1">
                    <mxGeometry width="160" relative="1" as="geometry">
                        <mxPoint y="410" as="sourcePoint"/>
                        <mxPoint y="270" as="targetPoint"/>
                        <Array as="points"/>
                    </mxGeometry>
                </mxCell>
                <mxCell id="10" value="&amp;lt;&amp;lt;system&amp;gt;&amp;gt;&lt;br&gt;Servizio RMI" style="shape=umlActor;verticalLabelPosition=bottom;verticalAlign=top;html=1;outlineConnect=0;" parent="1" vertex="1">
                    <mxGeometry x="860" y="420" width="30" height="60" as="geometry"/>
                </mxCell>
                <mxCell id="11" value="Consulta dati delle misurazioni" style="ellipse;whiteSpace=wrap;html=1;" parent="1" vertex="1">
                    <mxGeometry x="150" y="175" width="140" height="70" as="geometry"/>
                </mxCell>
                <mxCell id="12" value="Scegli un POI" style="ellipse;whiteSpace=wrap;html=1;" parent="1" vertex="1">
                    <mxGeometry x="450" y="175" width="140" height="70" as="geometry"/>
                </mxCell>
                <mxCell id="13" value="Scegli un POI per nome" style="ellipse;whiteSpace=wrap;html=1;" parent="1" vertex="1">
                    <mxGeometry x="600" y="290" width="140" height="70" as="geometry"/>
                </mxCell>
                <mxCell id="14" value="Scegli un POI per coordinate" style="ellipse;whiteSpace=wrap;html=1;" parent="1" vertex="1">
                    <mxGeometry x="450" y="320" width="140" height="70" as="geometry"/>
                </mxCell>
                <mxCell id="16" value="" style="endArrow=open;endFill=1;endSize=12;html=1;exitX=0.5;exitY=0.5;exitDx=0;exitDy=0;exitPerimeter=0;entryX=0;entryY=0.5;entryDx=0;entryDy=0;" parent="1" source="3" target="11" edge="1">
                    <mxGeometry width="160" relative="1" as="geometry">
                        <mxPoint x="190" y="250" as="sourcePoint"/>
                        <mxPoint x="350" y="250" as="targetPoint"/>
                    </mxGeometry>
                </mxCell>
                <mxCell id="17" value="&amp;lt;&amp;lt;include&amp;gt;&amp;gt;" style="html=1;verticalAlign=bottom;labelBackgroundColor=none;endArrow=open;endFill=0;dashed=1;exitX=1;exitY=0.5;exitDx=0;exitDy=0;entryX=0;entryY=0.5;entryDx=0;entryDy=0;" parent="1" source="11" target="12" edge="1">
                    <mxGeometry width="160" relative="1" as="geometry">
                        <mxPoint x="340" y="200" as="sourcePoint"/>
                        <mxPoint x="500" y="200" as="targetPoint"/>
                    </mxGeometry>
                </mxCell>
                <mxCell id="18" value="&amp;lt;&amp;lt;extend&amp;gt;&amp;gt;" style="html=1;verticalAlign=bottom;labelBackgroundColor=none;endArrow=open;endFill=0;dashed=1;exitX=0.5;exitY=0;exitDx=0;exitDy=0;entryX=0.5;entryY=1;entryDx=0;entryDy=0;" parent="1" source="14" target="12" edge="1">
                    <mxGeometry width="160" relative="1" as="geometry">
                        <mxPoint x="280" y="310" as="sourcePoint"/>
                        <mxPoint x="500" y="250" as="targetPoint"/>
                    </mxGeometry>
                </mxCell>
                <mxCell id="19" value="&amp;lt;&amp;lt;extend&amp;gt;&amp;gt;" style="html=1;verticalAlign=bottom;labelBackgroundColor=none;endArrow=open;endFill=0;dashed=1;entryX=1;entryY=1;entryDx=0;entryDy=0;exitX=0;exitY=0;exitDx=0;exitDy=0;" parent="1" source="13" target="12" edge="1">
                    <mxGeometry width="160" relative="1" as="geometry">
                        <mxPoint x="550" y="350" as="sourcePoint"/>
                        <mxPoint x="630" y="350" as="targetPoint"/>
                    </mxGeometry>
                </mxCell>
                <mxCell id="21" value="" style="endArrow=open;endFill=1;endSize=12;html=1;exitX=0.5;exitY=0.5;exitDx=0;exitDy=0;exitPerimeter=0;entryX=1;entryY=0.5;entryDx=0;entryDy=0;" parent="1" source="10" target="12" edge="1">
                    <mxGeometry width="160" relative="1" as="geometry">
                        <mxPoint x="5" y="170" as="sourcePoint"/>
                        <mxPoint x="190" y="185" as="targetPoint"/>
                        <Array as="points">
                            <mxPoint x="800" y="450"/>
                            <mxPoint x="800" y="210"/>
                        </Array>
                    </mxGeometry>
                </mxCell>
                <mxCell id="22" value="Registrati" style="ellipse;whiteSpace=wrap;html=1;" parent="1" vertex="1">
                    <mxGeometry x="150" y="415" width="140" height="70" as="geometry"/>
                </mxCell>
                <mxCell id="23" value="Accedi all'area riservata" style="ellipse;whiteSpace=wrap;html=1;" parent="1" vertex="1">
                    <mxGeometry x="150" y="525" width="140" height="70" as="geometry"/>
                </mxCell>
                <mxCell id="24" value="Autenticati" style="ellipse;whiteSpace=wrap;html=1;" parent="1" vertex="1">
                    <mxGeometry x="380" y="525" width="140" height="70" as="geometry"/>
                </mxCell>
                <mxCell id="26" value="&amp;lt;&amp;lt;include&amp;gt;&amp;gt;" style="html=1;verticalAlign=bottom;labelBackgroundColor=none;endArrow=open;endFill=0;dashed=1;entryX=0;entryY=0.5;entryDx=0;entryDy=0;exitX=1;exitY=0.5;exitDx=0;exitDy=0;" parent="1" source="23" target="24" edge="1">
                    <mxGeometry width="160" relative="1" as="geometry">
                        <mxPoint x="290" y="565" as="sourcePoint"/>
                        <mxPoint x="450" y="565" as="targetPoint"/>
                    </mxGeometry>
                </mxCell>
                <mxCell id="27" value="" style="endArrow=open;endFill=1;endSize=12;html=1;exitX=0.5;exitY=0.5;exitDx=0;exitDy=0;exitPerimeter=0;entryX=0;entryY=0.5;entryDx=0;entryDy=0;" parent="1" source="5" target="22" edge="1">
                    <mxGeometry width="160" relative="1" as="geometry">
                        <mxPoint x="15" y="180" as="sourcePoint"/>
                        <mxPoint x="200" y="195" as="targetPoint"/>
                    </mxGeometry>
                </mxCell>
                <mxCell id="28" value="" style="endArrow=open;endFill=1;endSize=12;html=1;exitX=0.5;exitY=0.5;exitDx=0;exitDy=0;exitPerimeter=0;entryX=0;entryY=0.5;entryDx=0;entryDy=0;" parent="1" source="5" target="23" edge="1">
                    <mxGeometry width="160" relative="1" as="geometry">
                        <mxPoint x="5" y="470" as="sourcePoint"/>
                        <mxPoint x="160" y="475" as="targetPoint"/>
                        <Array as="points">
                            <mxPoint x="80" y="450"/>
                            <mxPoint x="80" y="560"/>
                        </Array>
                    </mxGeometry>
                </mxCell>
                <mxCell id="30" value="Registra centro di monitoraggio" style="ellipse;whiteSpace=wrap;html=1;" parent="1" vertex="1">
                    <mxGeometry x="380" y="720" width="140" height="70" as="geometry"/>
                </mxCell>
                <mxCell id="31" value="Associa un centro di monitoraggio" style="ellipse;whiteSpace=wrap;html=1;" parent="1" vertex="1">
                    <mxGeometry x="150" y="630" width="140" height="70" as="geometry"/>
                </mxCell>
                <mxCell id="32" value="Inserisci nuova misurazione" style="ellipse;whiteSpace=wrap;html=1;" parent="1" vertex="1">
                    <mxGeometry x="140" y="880" width="140" height="70" as="geometry"/>
                </mxCell>
                <mxCell id="34" value="" style="endArrow=open;endFill=1;endSize=12;html=1;exitX=0.5;exitY=0.5;exitDx=0;exitDy=0;exitPerimeter=0;entryX=0;entryY=0.5;entryDx=0;entryDy=0;" parent="1" source="5" target="31" edge="1">
                    <mxGeometry width="160" relative="1" as="geometry">
                        <mxPoint x="15" y="480" as="sourcePoint"/>
                        <mxPoint x="170" y="585" as="targetPoint"/>
                        <Array as="points">
                            <mxPoint x="80" y="450"/>
                            <mxPoint x="80" y="665"/>
                        </Array>
                    </mxGeometry>
                </mxCell>
                <mxCell id="35" value="" style="endArrow=open;endFill=1;endSize=12;html=1;exitX=0.5;exitY=0.5;exitDx=0;exitDy=0;exitPerimeter=0;entryX=0;entryY=0.5;entryDx=0;entryDy=0;" parent="1" source="5" target="32" edge="1">
                    <mxGeometry width="160" relative="1" as="geometry">
                        <mxPoint x="25" y="490" as="sourcePoint"/>
                        <mxPoint x="180" y="595" as="targetPoint"/>
                        <Array as="points">
                            <mxPoint x="80" y="450"/>
                            <mxPoint x="80" y="915"/>
                        </Array>
                    </mxGeometry>
                </mxCell>
                <mxCell id="37" value="&amp;lt;&amp;lt;include&amp;gt;&amp;gt;" style="html=1;verticalAlign=bottom;labelBackgroundColor=none;endArrow=open;endFill=0;dashed=1;entryX=0.5;entryY=1;entryDx=0;entryDy=0;exitX=0.557;exitY=0.064;exitDx=0;exitDy=0;exitPerimeter=0;" parent="1" source="39" target="13" edge="1">
                    <mxGeometry x="-0.2668" width="160" relative="1" as="geometry">
                        <mxPoint x="230" y="700" as="sourcePoint"/>
                        <mxPoint x="230" y="770" as="targetPoint"/>
                        <mxPoint as="offset"/>
                        <Array as="points"/>
                    </mxGeometry>
                </mxCell>
                <mxCell id="39" value="Associa POI al centro di monitoraggio" style="ellipse;whiteSpace=wrap;html=1;" parent="1" vertex="1">
                    <mxGeometry x="590" y="720" width="140" height="70" as="geometry"/>
                </mxCell>
                <mxCell id="40" value="Scegli centro di monitoraggio" style="ellipse;whiteSpace=wrap;html=1;" parent="1" vertex="1">
                    <mxGeometry x="380" y="820" width="140" height="70" as="geometry"/>
                </mxCell>
                <mxCell id="47" value="" style="endArrow=open;endFill=1;endSize=12;html=1;exitX=0.5;exitY=0.5;exitDx=0;exitDy=0;exitPerimeter=0;entryX=1;entryY=0.5;entryDx=0;entryDy=0;" parent="1" source="10" target="32" edge="1">
                    <mxGeometry width="160" relative="1" as="geometry">
                        <mxPoint x="885" y="460" as="sourcePoint"/>
                        <mxPoint x="470" y="735" as="targetPoint"/>
                        <Array as="points">
                            <mxPoint x="800" y="450"/>
                            <mxPoint x="800" y="915"/>
                        </Array>
                    </mxGeometry>
                </mxCell>
                <mxCell id="48" value="" style="endArrow=open;endFill=1;endSize=12;html=1;exitX=0.5;exitY=0.5;exitDx=0;exitDy=0;exitPerimeter=0;entryX=1;entryY=0.5;entryDx=0;entryDy=0;" parent="1" source="10" target="22" edge="1">
                    <mxGeometry width="160" relative="1" as="geometry">
                        <mxPoint x="885" y="460" as="sourcePoint"/>
                        <mxPoint x="630" y="575" as="targetPoint"/>
                    </mxGeometry>
                </mxCell>
                <mxCell id="76" value="" style="endArrow=open;endFill=1;endSize=12;html=1;exitX=0.5;exitY=0.5;exitDx=0;exitDy=0;exitPerimeter=0;entryX=1;entryY=0.5;entryDx=0;entryDy=0;" parent="1" source="10" target="24" edge="1">
                    <mxGeometry width="160" relative="1" as="geometry">
                        <mxPoint x="945" y="560" as="sourcePoint"/>
                        <mxPoint x="300" y="470" as="targetPoint"/>
                        <Array as="points">
                            <mxPoint x="800" y="450"/>
                            <mxPoint x="800" y="560"/>
                        </Array>
                    </mxGeometry>
                </mxCell>
                <mxCell id="OpFJVqeJ-bgPtQgnmZy2-77" value="Consulta repository dei POI" style="ellipse;whiteSpace=wrap;html=1;" parent="1" vertex="1">
                    <mxGeometry x="150" y="80" width="140" height="70" as="geometry"/>
                </mxCell>
                <mxCell id="OpFJVqeJ-bgPtQgnmZy2-79" value="" style="endArrow=open;endFill=1;endSize=12;html=1;exitX=0.5;exitY=0.5;exitDx=0;exitDy=0;exitPerimeter=0;entryX=0;entryY=0.5;entryDx=0;entryDy=0;" parent="1" source="3" target="OpFJVqeJ-bgPtQgnmZy2-77" edge="1">
                    <mxGeometry width="160" relative="1" as="geometry">
                        <mxPoint x="5" y="220" as="sourcePoint"/>
                        <mxPoint x="210" y="225" as="targetPoint"/>
                        <Array as="points">
                            <mxPoint x="80" y="210"/>
                            <mxPoint x="80" y="115"/>
                        </Array>
                    </mxGeometry>
                </mxCell>
                <mxCell id="OpFJVqeJ-bgPtQgnmZy2-81" value="&amp;lt;&amp;lt;include&amp;gt;&amp;gt;" style="html=1;verticalAlign=bottom;labelBackgroundColor=none;endArrow=open;endFill=0;dashed=1;exitX=1;exitY=1;exitDx=0;exitDy=0;entryX=0;entryY=0;entryDx=0;entryDy=0;" parent="1" source="OpFJVqeJ-bgPtQgnmZy2-77" target="12" edge="1">
                    <mxGeometry width="160" relative="1" as="geometry">
                        <mxPoint x="329" y="250" as="sourcePoint"/>
                        <mxPoint x="551" y="260" as="targetPoint"/>
                    </mxGeometry>
                </mxCell>
                <mxCell id="IhDFcP2H-CDH3egl_4eO-76" value="&amp;lt;&amp;lt;include&amp;gt;&amp;gt;" style="html=1;verticalAlign=bottom;labelBackgroundColor=none;endArrow=open;endFill=0;dashed=1;entryX=0;entryY=0.5;entryDx=0;entryDy=0;exitX=1;exitY=1;exitDx=0;exitDy=0;" parent="1" source="31" target="30" edge="1">
                    <mxGeometry width="160" relative="1" as="geometry">
                        <mxPoint x="300" y="570" as="sourcePoint"/>
                        <mxPoint x="390" y="570" as="targetPoint"/>
                    </mxGeometry>
                </mxCell>
                <mxCell id="IhDFcP2H-CDH3egl_4eO-77" value="&amp;lt;&amp;lt;include&amp;gt;&amp;gt;" style="html=1;verticalAlign=bottom;labelBackgroundColor=none;endArrow=open;endFill=0;dashed=1;entryX=0;entryY=0.5;entryDx=0;entryDy=0;exitX=0.5;exitY=1;exitDx=0;exitDy=0;" parent="1" source="31" target="40" edge="1">
                    <mxGeometry width="160" relative="1" as="geometry">
                        <mxPoint x="300" y="745" as="sourcePoint"/>
                        <mxPoint x="400" y="675" as="targetPoint"/>
                    </mxGeometry>
                </mxCell>
                <mxCell id="IhDFcP2H-CDH3egl_4eO-78" value="&amp;lt;&amp;lt;include&amp;gt;&amp;gt;" style="html=1;verticalAlign=bottom;labelBackgroundColor=none;endArrow=open;endFill=0;dashed=1;entryX=0;entryY=0.5;entryDx=0;entryDy=0;exitX=1;exitY=0.5;exitDx=0;exitDy=0;" parent="1" source="30" target="39" edge="1">
                    <mxGeometry width="160" relative="1" as="geometry">
                        <mxPoint x="290" y="675" as="sourcePoint"/>
                        <mxPoint x="360" y="675" as="targetPoint"/>
                    </mxGeometry>
                </mxCell>
                <mxCell id="IhDFcP2H-CDH3egl_4eO-80" value="" style="endArrow=open;endFill=1;endSize=12;html=1;exitX=0.5;exitY=0.5;exitDx=0;exitDy=0;exitPerimeter=0;entryX=1;entryY=0.5;entryDx=0;entryDy=0;" parent="1" source="10" target="31" edge="1">
                    <mxGeometry width="160" relative="1" as="geometry">
                        <mxPoint x="885" y="460" as="sourcePoint"/>
                        <mxPoint x="530" y="570" as="targetPoint"/>
                        <Array as="points">
                            <mxPoint x="800" y="450"/>
                            <mxPoint x="800" y="665"/>
                        </Array>
                    </mxGeometry>
                </mxCell>
            </root>
        </mxGraphModel>
    </diagram>
</mxfile>